<svg width="221" height="194" viewBox="0 0 221 194" fill="none" xmlns="http://www.w3.org/2000/svg">
<path d="M29.3658 97.0005H98.9935C98.9935 97.0005 101.784 97.0005 103.644 93.9443C105.828 90.3567 103.511 87.0347 103.511 87.0347L68.6562 36.1619C65.1964 31.1488 66.4555 24.2802 71.4685 20.8204C76.4815 17.3606 83.3501 18.6197 86.81 23.6327L87.0345 23.9181L120.785 73.0826C120.785 73.0826 122.37 75.371 123.841 76.2717C126.1 77.4676 129.555 77.4676 129.555 77.4676H183.37C183.37 77.4676 188.021 77.4676 190.147 73.8799C192.805 68.9635 189.881 64.9771 189.881 64.9771L148.291 3.98654C148.291 3.98654 146.204 1.63044 144.437 0.797485C142.671 -0.0354718 138.325 0.000222425 138.325 0.000222425H53.9481C53.9481 0.000222425 51.2906 0.000222396 49.0317 1.32899C47.7029 2.25913 45.5769 4.65092 45.5769 4.65092L3.58768 50.3607C3.58768 50.3607 0.000892694 53.9483 0 58.3333C0 62.0538 2.39179 65.11 2.39179 65.11L21.1275 91.6854C21.1275 91.6854 22.5289 93.7513 23.6521 94.8745C25.6453 96.8676 29.3658 97.0005 29.3658 97.0005Z" fill="#F6FF46"/>
<path d="M191.396 97.0003H121.768C121.768 97.0003 118.978 97.0003 117.118 100.057C114.934 103.644 117.25 106.966 117.25 106.966L152.106 157.839C155.565 162.852 154.306 169.721 149.293 173.18C144.28 176.64 137.412 175.381 133.952 170.368L133.727 170.083L99.9764 120.918C99.9764 120.918 98.3914 118.63 96.9202 117.729C94.6613 116.533 91.2065 116.533 91.2065 116.533H37.3913C37.3913 116.533 32.7406 116.533 30.6145 120.121C27.957 125.037 30.8803 129.024 30.8803 129.024L72.4708 190.014C72.4708 190.014 74.5574 192.37 76.3243 193.203C78.0911 194.036 82.4366 194.001 82.4366 194.001H166.814C166.814 194.001 169.471 194.001 171.73 192.672C173.059 191.742 175.185 189.35 175.185 189.35L217.174 143.64C217.174 143.64 220.761 140.053 220.762 135.668C220.762 131.947 218.37 128.891 218.37 128.891L199.634 102.315C199.634 102.315 198.233 100.25 197.11 99.1264C195.116 97.1332 191.396 97.0003 191.396 97.0003Z" fill="#F6FF46"/>
</svg>
